<svg width="23" height="10" viewBox="0 0 23 10" fill="none" xmlns="http://www.w3.org/2000/svg">
<path opacity="0.5" d="M5.8125 5.05664H2.11523V8.08008H6.41016V9H0.990234V0.46875H6.35156V1.39453H2.11523V4.13672H5.8125V5.05664ZM14.3672 9H13.2363L8.94141 2.42578V9H7.81055V0.46875H8.94141L13.248 7.07227V0.46875H14.3672V9ZM22.6641 7.88086C22.375 8.29492 21.9707 8.60547 21.4512 8.8125C20.9355 9.01562 20.334 9.11719 19.6465 9.11719C18.9512 9.11719 18.334 8.95508 17.7949 8.63086C17.2559 8.30273 16.8379 7.83789 16.541 7.23633C16.248 6.63477 16.0977 5.9375 16.0898 5.14453V4.40039C16.0898 3.11523 16.3887 2.11914 16.9863 1.41211C17.5879 0.705078 18.4316 0.351562 19.5176 0.351562C20.4082 0.351562 21.125 0.580078 21.668 1.03711C22.2109 1.49023 22.543 2.13477 22.6641 2.9707H21.5391C21.3281 1.8418 20.6562 1.27734 19.5234 1.27734C18.7695 1.27734 18.1973 1.54297 17.8066 2.07422C17.4199 2.60156 17.2246 3.36719 17.2207 4.37109V5.06836C17.2207 6.02539 17.4395 6.78711 17.877 7.35352C18.3145 7.91602 18.9062 8.19727 19.6523 8.19727C20.0742 8.19727 20.4434 8.15039 20.7598 8.05664C21.0762 7.96289 21.3379 7.80469 21.5449 7.58203V5.66602H19.5703V4.75195H22.6641V7.88086Z" fill="white"/>
</svg>
