<svg width="14" height="9" viewBox="0 0 14 9" fill="none" xmlns="http://www.w3.org/2000/svg">
<path opacity="0.5" d="M5.69531 5.23242H2.11523V9H0.990234V0.46875H6.27539V1.39453H2.11523V4.3125H5.69531V5.23242ZM10.752 5.54883H8.74805V9H7.61719V0.46875H10.4414C11.4023 0.46875 12.1406 0.6875 12.6562 1.125C13.1758 1.5625 13.4355 2.19922 13.4355 3.03516C13.4355 3.56641 13.291 4.0293 13.002 4.42383C12.7168 4.81836 12.3184 5.11328 11.8066 5.30859L13.8105 8.92969V9H12.6035L10.752 5.54883ZM8.74805 4.62891H10.4766C11.0352 4.62891 11.4785 4.48438 11.8066 4.19531C12.1387 3.90625 12.3047 3.51953 12.3047 3.03516C12.3047 2.50781 12.1465 2.10352 11.8301 1.82227C11.5176 1.54102 11.0645 1.39844 10.4707 1.39453H8.74805V4.62891Z" fill="white"/>
</svg>
