<svg width="23" height="10" viewBox="0 0 23 10" fill="none" xmlns="http://www.w3.org/2000/svg">
<path d="M2.11523 5.66016V9H0.990234V0.46875H4.13672C5.07031 0.46875 5.80078 0.707031 6.32812 1.18359C6.85938 1.66016 7.125 2.29102 7.125 3.07617C7.125 3.9043 6.86523 4.54297 6.3457 4.99219C5.83008 5.4375 5.08984 5.66016 4.125 5.66016H2.11523ZM2.11523 4.74023H4.13672C4.73828 4.74023 5.19922 4.59961 5.51953 4.31836C5.83984 4.0332 6 3.62305 6 3.08789C6 2.58008 5.83984 2.17383 5.51953 1.86914C5.19922 1.56445 4.75977 1.40625 4.20117 1.39453H2.11523V4.74023ZM11.4902 5.41992L13.4531 0.46875H14.7598L11.7422 7.57617C11.5391 8.0293 11.3496 8.35156 11.1738 8.54297C10.998 8.73047 10.791 8.875 10.5527 8.97656C10.3184 9.07422 10.0234 9.12305 9.66797 9.12305C9.35938 9.12305 9.16211 9.10547 9.07617 9.07031L9.11133 8.17969L9.64453 8.20312C10.0547 8.20312 10.3594 8.00586 10.5586 7.61133L10.7051 7.30664L10.9277 6.78516L8.02148 0.46875H9.28125L11.4902 5.41992ZM22.2422 6.29297C22.1367 7.19531 21.8027 7.89258 21.2402 8.38477C20.6816 8.87305 19.9375 9.11719 19.0078 9.11719C18 9.11719 17.1914 8.75586 16.582 8.0332C15.9766 7.31055 15.6738 6.34375 15.6738 5.13281V4.3125C15.6738 3.51953 15.8145 2.82227 16.0957 2.2207C16.3809 1.61914 16.7832 1.1582 17.3027 0.837891C17.8223 0.513672 18.4238 0.351562 19.1074 0.351562C20.0137 0.351562 20.7402 0.605469 21.2871 1.11328C21.834 1.61719 22.1523 2.31641 22.2422 3.21094H21.1113C21.0137 2.53125 20.8008 2.03906 20.4727 1.73438C20.1484 1.42969 19.6934 1.27734 19.1074 1.27734C18.3887 1.27734 17.8242 1.54297 17.4141 2.07422C17.0078 2.60547 16.8047 3.36133 16.8047 4.3418V5.16797C16.8047 6.09375 16.998 6.83008 17.3848 7.37695C17.7715 7.92383 18.3125 8.19727 19.0078 8.19727C19.6328 8.19727 20.1113 8.05664 20.4434 7.77539C20.7793 7.49023 21.002 6.99609 21.1113 6.29297H22.2422Z" fill="white"/>
</svg>
